<svg xmlns="http://www.w3.org/2000/svg" viewBox="0 0 4828 3781">
  <path d="M2349.3 308.1c-35.3 170.7-64.1 310.4-63.9 310.6.2.2 22.1-34.7 48.6-77.4l48.4-77.8 15.8-230.5c8.7-126.8 15.7-231.6 15.5-232.9-.1-1.2-29.1 137.3-64.4 308ZM2415.1.8c-.1 2.4 30.6 455.9 31.2 460.3.3 2.1 96.7 159.1 97.4 158.5.3-.2-122.9-595.7-126.6-612.6-1.1-4.7-2-7.5-2-6.2Zm-3.5 547.4c-7.6 151.9-34.5 320.9-76.1 478.6-57.8 219.4-143.3 429.6-259.2 637.5-205.1 367.8-500.4 713.8-875.8 1026.2-208.1 173.1-440.5 336-689 482.7-45.5 26.9-50.9 29.8-79.6 43.3-111.1 52.1-221.2 108.8-322.9 166.3C60 3410.5-.4 3446 .3 3446.6c.2.3 20.4-4.3 44.8-10s57.7-13.4 73.9-17.1l29.5-6.7 29.5-16.3c296.1-163.6 583.8-296.3 892.5-411.5 95.2-35.5 132-48.3 275.4-95.7 64.1-21.1 117.1-38.9 118-39.6.8-.7 11.8-12.9 24.6-27.2 300.3-337 530.2-683.9 686-1035 124.1-279.7 201.3-562.6 230.9-846.5 3.2-30.3 7.6-81.7 7.6-88.8 0-2.8.5-5.2 1-5.2.6 0 1 2.4 1 5.2 0 7.1 4.4 58.5 7.6 88.8 40.6 389.5 170.9 777.2 388.9 1157.5 140.6 245.3 316.7 486.8 528.2 724.2l23.3 26.1 7.7 2.6c4.3 1.4 50.8 16.4 103.3 33.5 101 32.8 114.9 37.4 165 54.9 351.2 122.7 693 276.1 1017.5 456.5l34 18.9 40.5 9.3c22.3 5.1 53 12.3 68.4 16 15.3 3.6 28.1 6.4 28.3 6.2.7-.7-59.3-35.9-108.7-63.9-101.7-57.5-211.8-114.2-322.9-166.3-28.7-13.5-34.1-16.4-79.6-43.3-473.2-279.4-878-610.1-1184.4-967.6-233.7-272.7-411.3-558.8-533.4-859.6-105-258.5-169.3-539.6-182.3-797.8-1-18.8-2.1-34.2-2.4-34.2-.3 0-1.4 15.4-2.4 34.2Z"/>
  <path d="M2414.6 1653.1c-.3 1.3-4.2 29.6-8.6 62.9-4.5 33.2-8.3 60.6-8.5 60.9-.3.2-3.1-1.6-6.2-4.1-16.9-13.1-31.3-23.9-31.3-23.5 0 .3 6.3 8.7 14.1 18.8l14 18.4-2.8.7c-1.5.5-30 4.4-63.3 8.8-53.1 7.1-65.4 9-59.9 9 2.8 0 124.9 16.7 125.4 17.1.2.3-5.9 8.7-13.6 18.8-7.6 10.1-13.9 18.6-13.9 18.8 0 .3 2.8-1.7 6.3-4.4 17-13.4 31.7-24.3 31.7-23.6-.1 2.4 16.2 123.1 16.8 124.6.4 1.1 4.5-26.2 9.2-61.2 4.6-34.7 8.7-63.1 9.1-63.1.4 0 8.6 6.1 18.3 13.5 9.7 7.4 17.8 13.5 18.1 13.5.4 0-5.7-8.3-13.4-18.5l-14.1-18.4 3.3-.6c4.2-.7 121.6-16.5 123-16.5 5.4 0-8.5-2.1-59.8-9-33-4.4-61.5-8.2-63.3-8.5l-3.2-.6 14-18.4c7.7-10.2 13.8-18.5 13.5-18.5-.4 0-8.3 5.9-17.7 13.1-9.4 7.2-17.6 13.3-18.2 13.5-.8.3-3.8-19.3-9.5-62.3-4.6-34.6-8.5-63-8.7-63.2-.2-.2-.5.7-.8 2ZM1999.8 2482c-.3 1.4-2.5 17.1-4.9 35-2.3 17.9-4.5 32.8-4.8 33.2-.3.4-5.1-2.7-10.5-6.8-5.5-4.1-10.1-7.4-10.3-7.4-.3 0 3.2 4.7 7.6 10.4l8.1 10.4-3.3.5c-1.7.3-17.7 2.5-35.5 4.8-17.7 2.4-31.7 4.6-31 5 .7.3 16 2.6 34 5 18.1 2.3 33.3 4.6 33.9 5 .8.5-1.1 3.7-5.6 9.6-3.7 4.8-7.3 9.5-7.9 10.3-1.2 1.6 3-1.3 13.3-9.3 3.4-2.7 6.6-4.5 7.1-4 .4.4 2.6 15.4 4.9 33.3 2.3 17.9 4.5 33.5 4.9 34.8.5 1.5 2.4-10.1 5.1-30.5 2.4-18 4.6-34.2 4.8-36l.5-3.2 10.4 8c5.7 4.4 10.4 7.9 10.4 7.6 0-.2-3.4-4.8-7.5-10.3-6.2-8.3-7.1-10-5.7-10.6.9-.4 16.1-2.5 33.7-4.8s32.8-4.4 33.8-4.8c1-.4-13.1-2.7-31.5-5.1-18.3-2.5-34.4-4.7-35.6-5-2.3-.6-2.1-1 4.5-9.7 3.9-5 7.4-9.7 7.8-10.5 1-1.6 1.6-2-10.8 7.5-4.9 3.8-9 6.6-9.3 6.4-.2-.3-2.4-15.7-4.9-34.4-5.4-40.2-4.9-37.5-5.7-34.4Zm830.3 31.2c-2.4 18.3-4.7 34.3-5 35.6-.6 2.3-.9 2.2-7.6-2.9-3.9-2.9-8.6-6.4-10.5-7.8l-3.5-2.6 2.9 4c1.6 2.2 5.2 6.9 7.9 10.3 2.7 3.5 4.7 6.6 4.4 6.8-.2.3-16.4 2.6-35.8 5.3-20.2 2.7-34.3 5.1-32.9 5.4 1.4.4 16.7 2.5 34 4.7 17.3 2.3 32.3 4.4 33.3 4.8 1.6.6.8 2.1-5.7 10.6-4.2 5.4-7.6 10-7.6 10.3 0 .2 4.7-3.2 10.4-7.5l10.4-8 .6 3.2c.2 1.7 2.4 17.6 4.8 35.3 2.3 17.8 4.5 31.9 4.9 31.5.3-.4 2.5-15.7 5-34 2.4-18.3 4.6-33.8 5-34.4.4-.7 4.1 1.5 9.5 5.7 11.9 9.2 12.2 9.4 10.8 7.5-.6-.8-4.1-5.5-7.9-10.4-4.2-5.5-6.4-9.1-5.7-9.5.6-.4 15.9-2.6 33.9-5 18-2.3 33.7-4.5 34.8-4.9 1.5-.4-62.7-9.8-69.2-10.1-.7-.1 2.4-4.8 6.8-10.6s7.8-10.5 7.6-10.5c-.3 0-4.9 3.4-10.3 7.6-8.5 6.5-10 7.3-10.6 5.7-.4-1-2.5-16.2-4.8-33.8-2.3-17.6-4.4-32.8-4.8-33.8-.4-.9-2.7 13.2-5.1 31.5ZM2331 2777.6c-5.8.2-30.1.8-54.1 1.5-24 .6-46.2 1.4-49.4 1.8l-5.8.6 79.9 59.4c43.9 32.7 82.2 61.2 85 63.3l5.1 3.8 6.9-3.5c12.8-6.6 24.9-6.6 37.8-.1 3.8 2 7.4 3.2 8.1 2.8.7-.4 39.1-28.8 85.4-63.2l84.1-62.5-12.2-.7c-35.5-2-87.4-3-169.3-3.2-50-.2-95.7-.2-101.5 0Zm-169 6c-108.7 6.1-209 14.9-310 27-63.5 7.6-78.9 10-77.8 12.4.2.3 28.8 28.6 63.7 63 39.6 39.1 64 62.4 65 62.2.9-.2 4.5-.4 8.1-.5 5.5-.2 7.3.3 11.8 2.7 9.3 5.2 13.5 13.3 13 24.9l-.3 6.8 81.5 80.3 81.5 80.3.7-6.1c.3-3.4 1.1-14.9 1.8-25.6 6.1-104 35.8-214.1 83.9-310.9l9-18.1-4.2.1c-2.3.1-14.8.8-27.7 1.5Zm480-.9c0 .1 4.2 8.9 9.4 19.5 46.5 95.4 74.5 197.7 82.1 299.5.8 11.5 1.8 25.4 2.3 30.9l.7 10.2 82-80.8c70.8-69.7 81.9-81.1 81.5-83.1-1.1-5.3-.3-13.5 1.7-17.4 5.5-10.6 17.5-16.5 27.8-13.6l4 1.1 25.5-25.3c14-13.9 42.8-42.3 63.9-63.1 25.6-25.2 37.9-38.1 37.1-38.6-4.6-2.9-155.3-20.2-238.5-27.4-54.7-4.8-179.5-13-179.5-11.9Z"/>
  <path d="M2200.5 2813.2c-10.9 22.7-23.3 51.7-31.5 74-6.5 17.6-17.9 52.3-19.4 59.4l-.7 3.1 5.3-.8c2.9-.5 17.7-2.4 32.8-4.3 57.4-7.3 107.6-11.4 165.9-13.6 13.9-.5 25.5-1.1 25.6-1.2.1-.2.5-1.5.9-2.9.6-2.6-3.3-5.6-84.9-66.3-47-35-85.6-63.6-85.8-63.6-.2 0-3.9 7.3-8.2 16.2Zm340.8 47.1c-46.9 34.8-85.5 63.6-85.8 63.9-.3.3-.1 1.7.4 3.1 1 2.5 1.1 2.5 15.8 3.1 83.9 3.5 136.5 7.8 196.2 16.2 9.6 1.3 17.6 2.2 17.9 2 .5-.6-6.1-22.2-13-42.6-10.7-31.5-27.1-70.9-40.9-98.2l-5.4-10.7-85.2 63.2Zm-840.3-29.2c-74.7 11.7-143.4 23.9-208 36.9-37.5 7.5-41.4 8.4-76.5 19.5-104.4 32.8-146.9 47.4-169 57.7-81.7 38.3-162.4 91.3-232.9 153.1-47.6 41.8-97.1 94.7-133.8 143.2-5 6.6-9.6 12.6-10.2 13.4-.5.7 86.1-42.3 192.6-95.5l193.6-96.8 1.2-5.8c3.1-15.9 21.1-24.7 35.5-17.4l4.8 2.5 214.6-107.4c118-59.1 214.2-107.4 213.6-107.3-.5 0-12 1.8-25.5 3.9Zm1623.2 104.4 212.7 106.5 4.7-2.5c14.1-7.5 32.2 1.4 35.5 17.4l1.2 5.8 193.5 96.7c106.3 53.2 193 96.1 192.6 95.4-1.6-2.8-17.4-23.1-29.4-37.8-63.6-77.9-140.2-147.1-224.5-202.6-37.4-24.6-68.4-42.4-110.3-63-27.1-13.4-34.3-16.1-109.2-40.4-91.8-29.7-96.8-31.1-148.2-41.5-53.1-10.6-102.5-19.8-151.3-27.9-33.1-5.6-78-12.6-79.3-12.5-.4 0 95 47.9 212 106.4ZM1734 2860.7c-13 13.1-29.4 30.4-36.4 38.5-68.6 78.8-119.7 165.7-155.2 264.2-6.7 18.6-12.4 36.6-11.6 36.6.4 0 8.1-.7 17.2-1.5 133-11.7 335.6-23.9 482-29 25-.9 49.7-1.9 54.9-2.3l9.4-.7-86.8-85.5c-53.2-52.3-87.5-85.4-88.4-85.2-13.9 2.7-23.8-1.2-29.3-11.5-3.2-6-4.2-11.6-3-17.1l1-4.2-64.1-63c-35.2-34.6-64.5-63-65.1-63-.5 0-11.6 10.7-24.6 23.7Zm1277.4 39.3-64.1 63 1 4.5c2.3 9.9-3.6 22.1-12.9 26.6-5.6 2.7-13.1 3.6-17.4 2l-3.2-1.1-87 85.8c-83.3 82-86.9 85.7-84.1 86.4 1.5.3 24.9 1.4 51.8 2.3 146 4.8 326.9 15.7 488.7 29.3l20.7 1.8-.6-2.6c-1.5-6.4-14.2-42.4-20.8-59-37.2-94-89.3-177.6-156.5-251.5-13.8-15.1-49.3-50.5-50.7-50.5-.4 0-29.6 28.4-64.9 63Z"/>
  <path d="M1505.8 2960.6 1307 3060v3.3c0 7.5-7.7 18-15.6 21.3-5.6 2.3-14.2 1.8-20.4-1.3l-5.3-2.6-195.8 97.9c-107.7 53.8-195.6 98-195.5 98.2.2.1 25.5-3.4 56.2-7.8 153.7-22.2 299.5-40 453.9-55.5 36.3-3.6 120.3-11.5 122.7-11.5.9 0 2.8-4.3 5.2-12.3 15.3-49.4 39.3-106.2 64.5-152.2 34.2-62.4 70.8-113.2 122.6-170.3 3.1-3.4 5.5-6.2 5.3-6.1-.2 0-89.7 44.8-199 99.5Zm1636.9-85.4c63.4 70 114.9 150.5 151.1 236.3 10.6 25.1 15.9 39.3 25.2 67.5l7.8 23.5 29.8 2.7c143.8 13.1 290.8 29.7 436.9 49.3 45.7 6.1 142.9 19.9 161.9 23 4.9.8 9.1 1.3 9.2 1.2.2-.1-88.7-44.7-197.4-99.1l-197.7-98.8-5.5 2.6c-6.3 3-15 3.5-20.4 1.2-7.9-3.3-14.1-11.5-15.3-20.2l-.6-4.5-199-99.5-198.9-99.5 12.9 14.3Zm-793.7 75.9c-44.6 1.7-100.2 6.1-144.7 11.4-27.2 3.3-60.1 8-60.9 8.7-1 1.1-3.4 11.2-8.4 35.8-5.5 27-10.1 57.9-12.4 82.5-1.6 17.2-4 56.5-3.4 57 .3.2 257.8-189.1 259.7-191 .6-.6.8-2 .5-3.3-.6-1.9-1.2-2.2-5.3-2-2.5 0-13.8.5-25.1.9Zm106.6 1.1c-.3 1.5.1 2.9 1.2 3.9.9.9 46 34.2 100.2 74s112.2 82.4 128.9 94.7l30.3 22.3-.6-13.8c-2.3-46.5-8.3-94.1-17.1-134.8-2.5-11.7-6.5-27.8-6.9-28.2-.4-.5-20.8-3.3-44.3-6.3-53.3-6.6-104.8-10.8-160.8-13-32.9-1.3-30.2-1.4-30.9 1.2Zm-196.1 116.1c-83.5 61.6-131.3 97.3-130.1 97.5.9.2 20.3-.1 42.9-.7 95.9-2.5 239.1-3.4 342-2.2 55.1.6 118.7 1.6 141.2 2.2 22.6.6 43.5.9 46.5.7l5.6-.3-132.4-97.4c-122.2-89.9-132.4-97.2-134-95.8-1 .9-4.4 2.9-7.7 4.4-5.3 2.5-7.1 2.8-16 2.8s-10.7-.4-16.2-2.9c-3.5-1.6-6.8-3.5-7.4-4.2-.6-.8-1.4-1.4-1.8-1.3-.3 0-60 43.8-132.6 97.2Zm-1160-72.9c-73.7 27.3-160.7 61.3-234 91.6-57.5 23.7-177.7 75.8-179.7 77.8-.4.4 11.3 8.8 25.9 18.8l26.6 18.1 5.1-2c15.7-6 32.9 6.2 33 23.4v4.6l29 19.8c15.9 10.9 29.5 19.8 30.2 19.9.6.1 5-5.2 9.6-11.7 63.8-88.6 142.2-167.5 230.3-231.7 10.1-7.4 48.1-33.1 60.1-40.7 1.1-.6 1.5-1.2.9-1.2-.5 0-17.2 6-37 13.3Zm2623.5 3.3c104.9 70 193.8 155.5 265 254.6 6.3 8.7 11 14.5 11.8 14.2.7-.3 14.3-9.4 30.2-20.2l29-19.8v-5.3c0-9.2 4.8-16.9 13.5-21.5 5.1-2.7 16.4-3 21.1-.5l3 1.7 26.7-18.2c14.6-10 26.3-18.5 25.9-18.9-.4-.4-13.5-6.4-29.2-13.4-133-58.9-280.9-118.4-420.5-169-1.1-.4 9.5 7 23.5 16.3ZM648.5 3181.2c-7.1 3.3-25.8 12-41.5 19.3-77.6 36.1-190.1 91.4-257.5 126.5-58 30.3-131.8 70-130.1 70 .5 0 15.8-3.2 34-7.1 170.4-36.4 359-71.4 538-99.9 17.6-2.8 32.1-5.2 32.3-5.4.2-.1-13-9.3-29.3-20.4-29.4-20.1-29.5-20.2-32.3-18.7-7.3 3.7-17.8 2.6-25-2.6-5.8-4.1-9.2-10.6-9.9-18.5l-.5-6.5-30.9-21.1c-17-11.5-31.7-21.2-32.6-21.3-.9-.2-7.5 2.4-14.7 5.7Zm3491.2 15.4-31.7 21.6v5.2c0 6.5-3.7 14.4-8.8 18.6-7.1 5.9-18.6 7.4-26.1 3.5l-2.9-1.5-28.9 19.7c-31.2 21.2-30.9 21-30.1 21.8.3.3 17.1 3.2 37.4 6.5 183.7 29.5 365 63.3 532.9 99.4 21.5 4.6 39.1 8.3 39.3 8.2.1-.2-12.3-7.1-27.5-15.4-105.6-57.3-217.7-114.2-328.3-166.4-35.7-16.9-91.9-42.8-92.9-42.8-.4 0-15 9.7-32.4 21.6ZM553.5 3457.5c-8.2 1.8-14.7 4.8-21.9 10-14.4 10.4-17.2 14-121.1 161-54.9 77.5-100.8 142.5-102.2 144.2l-2.4 3.3h115.6l73.4-104.1c40.3-57.2 73.7-103.9 74.2-103.7.4.2 15.2 21.4 32.7 47.3 17.5 25.8 37.2 54.7 43.8 64.2 6.5 9.4 24 34.9 38.8 56.7l27 39.6h58.8c46.9 0 58.8-.3 58.2-1.3-4.2-6.7-199.6-289.3-202.7-293-5.3-6.2-17.3-16-23.9-19.3-11.9-6-33.3-8.2-48.3-4.9Zm1773-.5c-129 10.3-187.5 60.7-187.5 161.5 0 98.7 54.7 147.8 179 160.7 16.9 1.8 84.2 1.7 101 0 89.6-9.3 141.6-36.9 164.9-87.3 9.5-20.6 13.2-38.6 13.8-67.7.7-29-1.6-46.2-8.9-67.2-19.8-56.3-72.8-88.3-163.3-98.6-16.4-1.9-81.5-2.8-99-1.4Zm101.5 83.4c44.6 5.7 64.4 20.2 71.1 51.9 2.2 10.6 2.8 35.8 1 46.7-5.8 36-26.1 51.7-74.3 57.7-20.8 2.6-93.8 2.6-114.6 0-45-5.6-65.7-20-72.9-50.6-1.5-6.1-1.8-11.8-1.7-29.1 0-20.5.1-21.9 2.8-30.5 4.5-15 10.7-23.7 21.7-31.1 14.6-9.7 30.7-13.6 68.9-16.8 2.5-.2 22.7-.2 45-.1 29.5.3 43.9.8 53 1.9Zm256-82.9c-18 5-29.8 17.2-35.7 37-1.7 5.6-1.8 15.1-2.1 143.7l-.3 137.8h89.1l.2-92.1.3-92.1 98.5 88.7c54.2 48.8 100.8 90.2 103.6 92.1 8.2 5.6 14.7 7.6 25.9 8.1 27.5 1.3 45.9-11.9 54.3-38.9 1.5-4.8 1.7-19 1.9-143.1l.4-137.7H2931v92.1c0 50.6-.4 91.9-.8 91.7-.5-.2-44.9-39.9-98.7-88.3-53.7-48.4-100.2-89.7-103.1-91.8-8.4-6-15.1-8-27.9-8.4-7.6-.2-12.7.2-16.5 1.2Zm-1715.5 4.2c-51.3 4.5-86 22.6-100.9 52.6-6.6 13.3-8.7 22.3-9.3 39.5-.6 15.9.5 25.3 4.3 36.4 8.5 25.1 28.9 43 59.4 52.2 20.2 6.1 16 5.9 131.5 6.5 118.9.8 113 .4 120.6 8 9.8 9.7 7.1 27.9-5 34.1-7.7 3.9-11.7 4-138 4l-122.6.1-30.5 39.6c-16.8 21.7-30.6 40-30.8 40.4-.5 1.3 303.6 1.1 317.3-.1 39.4-3.7 65-13.6 84.1-32.5 12.8-12.7 18.6-23.9 23.1-44.5 2.7-12.7 2.4-38.6-.5-49.4-9-32.6-32.1-50.6-76.2-59.2-7.5-1.5-21.4-1.8-115.5-2.3-99.4-.6-107.4-.8-112.5-2.5-11-3.6-15-8.9-15-20 0-4.7.6-7.8 2-10.6 2.2-4.4 4.3-6.1 11-8.7 4.2-1.7 12.1-1.8 121.4-2.3l117-.5 30.8-40.4c16.9-22.3 30.8-40.6 30.8-40.8 0-.4-291.4-.1-296.5.4Z"/>
  <path d="m1291.4 3501.8-31.1 40.7 73.8.3 73.9.2v233h97v-233l56.3-.1h56.2l21.5-28.2c11.8-15.5 25.9-33.9 31.3-40.9l9.8-12.8-178.8.1h-178.8l-31.1 40.7Zm425.5-9.6c-13.3 17.2-27.6 35.6-31.7 40.8l-7.4 9.5 145.4.6c156.4.5 148.9.3 161.3 5.9 11.5 5.1 17.5 12.5 19.6 24.2 3.7 20.4-10.5 35.5-37.9 40.3-7.2 1.3-29.3 1.5-148.3 1.5H1678v161h97v-83h149.7l34.8 41.5 34.9 41.5h129.8l-2.5-2.9c-1.3-1.6-16.4-17.7-33.5-35.7-29.1-30.7-49.2-50.7-60.4-59.9l-4.7-3.9 8-2.3c19-5.5 33.7-14.1 46-27 12.6-13.2 19.9-26.4 24.6-44.2 2.2-8.3 2.6-11.9 2.7-26.1.1-18.7-1.5-28.4-6.6-40.9-8.8-21-28-40.3-52.7-52.6-9.7-4.8-28.3-11-40.7-13.5-27.3-5.5-24.2-5.3-148.1-5.7l-115.2-.4-24.2 31.3ZM3078 3618.5V3776h302.5l30.5-39.6c16.8-21.8 30.7-40 30.8-40.5.2-.5-55.5-.9-133.2-.9H3175l.2-21.3.3-21.2 96.6-.3 96.6-.2 27.4-35.1c15.1-19.3 27.6-35.5 27.7-36 .2-.5-48.1-.9-124.2-.9H3175v-37h203.8l31.1-40.5c17.1-22.2 31.1-40.7 31.1-41 0-.3-81.7-.5-181.5-.5H3078v157.5Zm400.4-116.7-31.1 40.7 73.8.3 73.9.2v233h97v-233l56.3-.1h56.2l20-26.2c11-14.4 25.1-32.8 31.3-40.9l11.3-14.8-178.8.1h-178.8l-31.1 40.7Zm419.6 116.7V3776h97v-315h-97v157.5Zm144-157.1c0 .2 24.8 23.7 55.2 52.3 75.4 70.7 94.5 88.2 106.6 97.7 3.4 2.7 6.1 5.2 6 5.6-.2.4-4.1 3.8-8.8 7.5-13.9 11.1-36.1 31.3-126.2 114.7L4035 3776h120.9l55.2-52.1 55.2-52 11.1 10.9c6.1 6 30.2 29.5 53.5 52.1l42.4 41.1h137.2l-5-4.9c-26.3-25.6-153.8-144.2-163.1-151.6-3.8-3.1-7-5.9-7.2-6.3-.1-.5 4.6-4.8 10.5-9.7 15.8-13.2 39.2-34.1 101.6-91.4l55.8-51.1h-126.2l-49.9 48.5c-27.5 26.7-50.3 48.5-50.8 48.5s-23.2-21.8-50.3-48.4l-49.4-48.5h-67.2c-37-.1-67.3.1-67.3.3Z"/>
</svg>
